999
"DXF R12 Output" (www.mydxf.blogspot.com)
 0 
SECTION
 2 
HEADER
 9 
$ACADVER
 1 
AC1009
 9 
$EXTMIN
 10 
 0 
 20 
 0 
 9 
$EXTMAX
 10 
 8.5 
 20 
 11 
 0 
ENDSEC
 0 
SECTION
 2 
ENTITIES
0
LINE
8
Layer 1
10
0.793749
20
297.794000
11
-0.793749
21
296.206000
0
LINE
8
Layer 1
10
0.000000
20
298.323000
11
0.000000
21
295.677000
0
LINE
8
Layer 1
10
2.116660
20
295.942000
11
1.058330
21
294.883670
0
LINE
8
Layer 1
10
1.587500
20
296.471000
11
0.529170
21
295.412670
0
LINE
8
Layer 1
10
1.058330
20
297.000000
11
0.000000
21
295.941670
0
LINE
8
Default
10
0.000000
20
62.442000
11
63.144700
21
62.442000
0
LINE
8
Default
10
63.144700
20
62.442000
11
63.144700
21
68.169270
0
LINE
8
Default
10
0.000000
20
68.169200
11
63.144700
21
68.169200
0
LINE
8
Default
10
0.000000
20
62.442000
11
0.000000
21
68.169200
0
LINE
8
Default
10
63.144700
20
62.442000
11
66.219960
21
62.442000
0
LINE
8
Default
10
66.220000
20
62.442000
11
66.220000
21
68.169270
0
LINE
8
Default
10
63.144700
20
68.169200
11
66.219960
21
68.169200
0
LINE
8
Default
10
66.220000
20
62.442000
11
93.218600
21
62.442000
0
LINE
8
Default
10
93.218600
20
62.442000
11
93.218600
21
68.169270
0
LINE
8
Default
10
66.220000
20
68.169200
11
93.218600
21
68.169200
0
LINE
8
Default
10
93.218600
20
62.442000
11
97.268390
21
62.442000
0
LINE
8
Default
10
97.268400
20
62.442000
11
97.268400
21
68.169270
0
LINE
8
Default
10
93.218600
20
68.169200
11
97.268390
21
68.169200
0
LINE
8
Default
10
97.268400
20
62.442000
11
70.366300
21
62.442000
0
LINE
8
Default
10
70.366300
20
62.442000
11
70.366300
21
68.169270
0
LINE
8
Default
10
97.268400
20
68.169200
11
70.366300
21
68.169200
0
LINE
8
Default
10
70.366300
20
62.442000
11
69.714031
21
62.442000
0
LINE
8
Default
10
69.714000
20
62.442000
11
69.714000
21
68.169270
0
LINE
8
Default
10
70.366300
20
68.169200
11
69.714031
21
68.169200
0
LINE
8
Default
10
69.714000
20
62.442000
11
104.999800
21
62.442000
0
LINE
8
Default
10
105.000000
20
62.442000
11
105.000000
21
68.169270
0
LINE
8
Default
10
69.714000
20
68.169200
11
104.999800
21
68.169200
0
LINE
8
Default
10
105.000000
20
62.442000
11
140.948200
21
62.442000
0
LINE
8
Default
10
140.948000
20
62.442000
11
140.948000
21
68.169270
0
LINE
8
Default
10
105.000000
20
68.169200
11
140.948200
21
68.169200
0
LINE
8
Default
10
140.948000
20
62.442000
11
140.466104
21
62.442000
0
LINE
8
Default
10
140.466000
20
62.442000
11
140.466000
21
68.169270
0
LINE
8
Default
10
140.948000
20
68.169200
11
140.466104
21
68.169200
0
LINE
8
Default
10
140.466000
20
62.442000
11
113.467400
21
62.442000
0
LINE
8
Default
10
113.468000
20
62.442000
11
113.468000
21
68.169270
0
LINE
8
Default
10
140.466000
20
68.169200
11
113.467400
21
68.169200
0
LINE
8
Default
10
113.468000
20
62.442000
11
117.517790
21
62.442000
0
LINE
8
Default
10
117.517000
20
62.442000
11
117.517000
21
68.169270
0
LINE
8
Default
10
113.468000
20
68.169200
11
117.517790
21
68.169200
0
LINE
8
Default
10
117.517000
20
62.442000
11
143.725300
21
62.442000
0
LINE
8
Default
10
143.726000
20
62.442000
11
143.726000
21
68.169270
0
LINE
8
Default
10
117.517000
20
68.169200
11
143.725300
21
68.169200
0
LINE
8
Default
10
143.726000
20
62.442000
11
147.460190
21
62.442000
0
LINE
8
Default
10
147.460000
20
62.442000
11
147.460000
21
68.169270
0
LINE
8
Default
10
143.726000
20
68.169200
11
147.460190
21
68.169200
0
LINE
8
Default
10
147.460000
20
62.442000
11
209.999900
21
62.442000
0
LINE
8
Default
10
210.000000
20
62.442000
11
210.000000
21
68.169270
0
LINE
8
Default
10
147.460000
20
68.169200
11
209.999900
21
68.169200
0
LINE
8
Default
10
210.000000
20
62.442000
11
146.724000
21
62.442000
0
LINE
8
Default
10
146.724000
20
62.442000
11
146.724000
21
68.169270
0
LINE
8
Default
10
210.000000
20
68.169200
11
146.724000
21
68.169200
0
LINE
8
Default
10
146.724000
20
62.442000
11
117.517600
21
62.442000
0
LINE
8
Default
10
117.517000
20
62.442000
11
117.517000
21
68.169270
0
LINE
8
Default
10
146.724000
20
68.169200
11
117.517600
21
68.169200
0
LINE
8
Default
10
117.517000
20
62.442000
11
113.467210
21
62.442000
0
LINE
8
Default
10
113.468000
20
62.442000
11
113.468000
21
68.169270
0
LINE
8
Default
10
117.517000
20
68.169200
11
113.467210
21
68.169200
0
LINE
8
Default
10
113.468000
20
62.442000
11
139.676300
21
62.442000
0
LINE
8
Default
10
139.676000
20
62.442000
11
139.676000
21
68.169270
0
LINE
8
Default
10
113.468000
20
68.169200
11
139.676300
21
68.169200
0
LINE
8
Default
10
139.676000
20
62.442000
11
140.196887
21
62.442000
0
LINE
8
Default
10
140.197000
20
62.442000
11
140.197000
21
68.169270
0
LINE
8
Default
10
139.676000
20
68.169200
11
140.196887
21
68.169200
0
LINE
8
Default
10
140.197000
20
62.442000
11
105.273500
21
62.442000
0
LINE
8
Default
10
105.273000
20
62.442000
11
105.273000
21
68.169270
0
LINE
8
Default
10
140.197000
20
68.169200
11
105.273500
21
68.169200
0
LINE
8
Default
10
105.273000
20
62.442000
11
69.744000
21
62.442000
0
LINE
8
Default
10
69.744200
20
62.442000
11
69.744200
21
68.169270
0
LINE
8
Default
10
105.273000
20
68.169200
11
69.744000
21
68.169200
0
LINE
8
Default
10
69.744200
20
62.442000
11
69.744200
21
62.442000
0
LINE
8
Default
10
69.744200
20
62.442000
11
69.744200
21
68.169270
0
LINE
8
Default
10
69.744200
20
68.169200
11
69.744200
21
68.169200
0
LINE
8
Default
10
69.744200
20
62.442000
11
97.268400
21
62.442000
0
LINE
8
Default
10
97.268400
20
62.442000
11
97.268400
21
68.169270
0
LINE
8
Default
10
69.744200
20
68.169200
11
97.268400
21
68.169200
0
LINE
8
Default
10
97.268400
20
62.442000
11
93.218610
21
62.442000
0
LINE
8
Default
10
93.218600
20
62.442000
11
93.218600
21
68.169270
0
LINE
8
Default
10
97.268400
20
68.169200
11
93.218610
21
68.169200
0
LINE
8
Default
10
93.218600
20
62.442000
11
65.428900
21
62.442000
0
LINE
8
Default
10
65.428900
20
62.442000
11
65.428900
21
68.169270
0
LINE
8
Default
10
93.218600
20
68.169200
11
65.428900
21
68.169200
0
LINE
8
Default
10
65.428900
20
62.442000
11
62.338140
21
62.442000
0
LINE
8
Default
10
62.338200
20
62.442000
11
62.338200
21
68.169270
0
LINE
8
Default
10
65.428900
20
68.169200
11
62.338140
21
68.169200
0
LINE
8
Default
10
62.338200
20
62.442000
11
0.000000
21
62.442000
0
LINE
8
Default
10
62.338200
20
68.169200
11
0.000000
21
68.169200
0
LINE
8
Default
10
0.000000
20
65.305600
11
63.144700
21
65.305600
0
LINE
8
Default
10
31.572400
20
62.442000
11
31.572400
21
68.169270
0
LINE
8
Default
10
63.144700
20
65.305600
11
66.219960
21
65.305600
0
LINE
8
Default
10
64.682400
20
62.442000
11
64.682400
21
68.169270
0
LINE
8
Default
10
66.220000
20
65.305600
11
93.218600
21
65.305600
0
LINE
8
Default
10
79.719300
20
62.442000
11
79.719300
21
68.169270
0
LINE
8
Default
10
93.218600
20
65.305600
11
97.268390
21
65.305600
0
LINE
8
Default
10
95.243500
20
62.442000
11
95.243500
21
68.169270
0
LINE
8
Default
10
97.268400
20
65.305600
11
70.366300
21
65.305600
0
LINE
8
Default
10
83.817300
20
62.442000
11
83.817300
21
68.169270
0
LINE
8
Default
10
70.366300
20
65.305600
11
69.714031
21
65.305600
0
LINE
8
Default
10
70.040200
20
62.442000
11
70.040200
21
68.169270
0
LINE
8
Default
10
69.714000
20
65.305600
11
104.999800
21
65.305600
0
LINE
8
Default
10
87.356900
20
62.442000
11
87.356900
21
68.169270
0
LINE
8
Default
10
105.000000
20
65.305600
11
140.948200
21
65.305600
0
LINE
8
Default
10
122.974000
20
62.442000
11
122.974000
21
68.169270
0
LINE
8
Default
10
140.948000
20
65.305600
11
140.466104
21
65.305600
0
LINE
8
Default
10
140.707000
20
62.442000
11
140.707000
21
68.169270
0
LINE
8
Default
10
140.466000
20
65.305600
11
113.467400
21
65.305600
0
LINE
8
Default
10
126.967000
20
62.442000
11
126.967000
21
68.169270
0
LINE
8
Default
10
113.468000
20
65.305600
11
117.517790
21
65.305600
0
LINE
8
Default
10
115.492000
20
62.442000
11
115.492000
21
68.169270
0
LINE
8
Default
10
117.517000
20
65.305600
11
143.725300
21
65.305600
0
LINE
8
Default
10
130.621000
20
62.442000
11
130.621000
21
68.169270
0
LINE
8
Default
10
143.726000
20
65.305600
11
147.460190
21
65.305600
0
LINE
8
Default
10
145.593000
20
62.442000
11
145.593000
21
68.169270
0
LINE
8
Default
10
147.460000
20
65.305600
11
209.999900
21
65.305600
0
LINE
8
Default
10
178.730000
20
62.442000
11
178.730000
21
68.169270
0
LINE
8
Default
10
210.000000
20
65.305600
11
146.724000
21
65.305600
0
LINE
8
Default
10
178.362000
20
62.442000
11
178.362000
21
68.169270
0
LINE
8
Default
10
146.724000
20
65.305600
11
117.517600
21
65.305600
0
LINE
8
Default
10
132.121000
20
62.442000
11
132.121000
21
68.169270
0
LINE
8
Default
10
117.517000
20
65.305600
11
113.467210
21
65.305600
0
LINE
8
Default
10
115.492000
20
62.442000
11
115.492000
21
68.169270
0
LINE
8
Default
10
113.468000
20
65.305600
11
139.676300
21
65.305600
0
LINE
8
Default
10
126.572000
20
62.442000
11
126.572000
21
68.169270
0
LINE
8
Default
10
139.676000
20
65.305600
11
140.196887
21
65.305600
0
LINE
8
Default
10
139.936000
20
62.442000
11
139.936000
21
68.169270
0
LINE
8
Default
10
140.197000
20
65.305600
11
105.273500
21
65.305600
0
LINE
8
Default
10
122.735000
20
62.442000
11
122.735000
21
68.169270
0
LINE
8
Default
10
105.273000
20
65.305600
11
69.744000
21
65.305600
0
LINE
8
Default
10
87.508700
20
62.442000
11
87.508700
21
68.169270
0
LINE
8
Default
10
69.744200
20
65.305600
11
69.744200
21
65.305600
0
LINE
8
Default
10
69.744200
20
62.442000
11
69.744200
21
68.169270
0
LINE
8
Default
10
69.744200
20
65.305600
11
97.268400
21
65.305600
0
LINE
8
Default
10
83.506300
20
62.442000
11
83.506300
21
68.169270
0
LINE
8
Default
10
97.268400
20
65.305600
11
93.218610
21
65.305600
0
LINE
8
Default
10
95.243500
20
62.442000
11
95.243500
21
68.169270
0
LINE
8
Default
10
93.218600
20
65.305600
11
65.428900
21
65.305600
0
LINE
8
Default
10
79.323800
20
62.442000
11
79.323800
21
68.169270
0
LINE
8
Default
10
65.428900
20
65.305600
11
62.338140
21
65.305600
0
LINE
8
Default
10
63.883500
20
62.442000
11
63.883500
21
68.169270
0
LINE
8
Default
10
62.338200
20
65.305600
11
0.000000
21
65.305600
0
LINE
8
Default
10
31.169100
20
62.442000
11
31.169100
21
68.169270
0
LINE
8
Default
10
0.129682
20
62.441900
11
209.865000
21
62.441900
0
LINE
8
Default
10
105.000000
20
62.441900
11
105.000000
21
62.441900
0
LINE
8
Default
10
0.129682
20
68.170100
11
209.865000
21
68.170100
0
LINE
8
Default
10
105.000000
20
68.170100
11
105.000000
21
68.170100
 0 
ENDSEC
 0 
EOF