999
"DXF R12 Output" (www.mydxf.blogspot.com)
 0 
SECTION
 2 
HEADER
 9 
$ACADVER
 1 
AC1009
 9 
$EXTMIN
 10 
 0 
 20 
 0 
 9 
$EXTMAX
 10 
 8.5 
 20 
 11 
 0 
ENDSEC
 0 
SECTION
 2 
ENTITIES
0
LINE
8
Layer 1
10
0.793749
20
297.794000
11
-0.793749
21
296.206000
0
LINE
8
Layer 1
10
0.000000
20
298.323000
11
0.000000
21
295.677000
0
LINE
8
Layer 1
10
2.116660
20
295.942000
11
1.058330
21
294.883670
0
LINE
8
Layer 1
10
1.587500
20
296.471000
11
0.529170
21
295.412670
0
LINE
8
Layer 1
10
1.058330
20
297.000000
11
0.000000
21
295.941670
0
LINE
8
Default
10
3.423220
20
239.169000
11
36.487220
21
220.602800
0
LINE
8
Default
10
36.487200
20
220.602000
11
36.487200
21
220.602000
0
LINE
8
Default
10
3.423220
20
239.169000
11
36.487220
21
220.602800
0
LINE
8
Default
10
3.423220
20
239.169000
11
3.423220
21
239.169000
0
LINE
8
Default
10
36.487200
20
220.602000
11
38.097480
21
220.880487
0
LINE
8
Default
10
38.097500
20
220.881000
11
38.097500
21
220.881000
0
LINE
8
Default
10
36.487200
20
220.602000
11
38.097480
21
220.880487
0
LINE
8
Default
10
38.097500
20
220.881000
11
52.234600
21
234.995300
0
LINE
8
Default
10
52.234600
20
234.995000
11
52.234600
21
234.995000
0
LINE
8
Default
10
38.097500
20
220.881000
11
52.234600
21
234.995300
0
LINE
8
Default
10
52.234600
20
234.995000
11
54.355160
21
232.877850
0
LINE
8
Default
10
54.355100
20
232.878000
11
54.355100
21
232.878000
0
LINE
8
Default
10
52.234600
20
234.995000
11
54.355160
21
232.877850
0
LINE
8
Default
10
54.355100
20
232.878000
11
40.268600
21
218.814100
0
LINE
8
Default
10
40.268600
20
218.814000
11
40.268600
21
218.814000
0
LINE
8
Default
10
54.355100
20
232.878000
11
40.268600
21
218.814100
0
LINE
8
Default
10
40.268600
20
218.814000
11
39.927060
21
217.150250
0
LINE
8
Default
10
39.927100
20
217.150000
11
39.927100
21
217.150000
0
LINE
8
Default
10
40.268600
20
218.814000
11
39.927060
21
217.150250
0
LINE
8
Default
10
39.927100
20
217.150000
11
58.403600
21
184.276300
0
LINE
8
Default
10
58.403500
20
184.277000
11
58.403500
21
184.277000
0
LINE
8
Default
10
39.927100
20
217.150000
11
58.403600
21
184.276300
0
LINE
8
Default
10
58.403500
20
184.277000
11
77.226800
21
217.150000
0
LINE
8
Default
10
77.226800
20
217.150000
11
77.226800
21
217.150000
0
LINE
8
Default
10
58.403500
20
184.277000
11
77.226800
21
217.150000
0
LINE
8
Default
10
77.226800
20
217.150000
11
76.974467
21
218.763300
0
LINE
8
Default
10
76.974400
20
218.764000
11
76.974400
21
218.764000
0
LINE
8
Default
10
77.226800
20
217.150000
11
76.974467
21
218.763300
0
LINE
8
Default
10
76.974400
20
218.764000
11
62.837400
21
232.878000
0
LINE
8
Default
10
62.837400
20
232.878000
11
62.837400
21
232.878000
0
LINE
8
Default
10
76.974400
20
218.764000
11
62.837400
21
232.878000
0
LINE
8
Default
10
62.837400
20
232.878000
11
64.957960
21
234.995150
0
LINE
8
Default
10
64.957900
20
234.995000
11
64.957900
21
234.995000
0
LINE
8
Default
10
62.837400
20
232.878000
11
64.957960
21
234.995150
0
LINE
8
Default
10
64.957900
20
234.995000
11
78.681200
21
220.890800
0
LINE
8
Default
10
78.681200
20
220.891000
11
78.681200
21
220.891000
0
LINE
8
Default
10
64.957900
20
234.995000
11
78.681200
21
220.890800
0
LINE
8
Default
10
78.681200
20
220.891000
11
80.636510
21
220.891000
0
LINE
8
Default
10
80.636500
20
220.891000
11
80.636500
21
220.891000
0
LINE
8
Default
10
78.681200
20
220.891000
11
80.636510
21
220.891000
0
LINE
8
Default
10
80.636500
20
220.891000
11
113.383800
21
239.168600
0
LINE
8
Default
10
113.384000
20
239.169000
11
113.384000
21
239.169000
0
LINE
8
Default
10
80.636500
20
220.891000
11
113.383800
21
239.168600
0
LINE
8
Default
10
113.384000
20
239.169000
11
80.251100
21
257.375000
0
LINE
8
Default
10
80.251100
20
257.375000
11
80.251100
21
257.375000
0
LINE
8
Default
10
113.384000
20
239.169000
11
80.251100
21
257.375000
0
LINE
8
Default
10
80.251100
20
257.375000
11
64.958000
21
243.464000
0
LINE
8
Default
10
64.957900
20
243.464000
11
64.957900
21
243.464000
0
LINE
8
Default
10
80.251100
20
257.375000
11
64.958000
21
243.464000
0
LINE
8
Default
10
64.957900
20
243.464000
11
62.837340
21
245.581150
0
LINE
8
Default
10
62.837400
20
245.581000
11
62.837400
21
245.581000
0
LINE
8
Default
10
64.957900
20
243.464000
11
62.837340
21
245.581150
0
LINE
8
Default
10
62.837400
20
245.581000
11
76.560700
21
259.685200
0
LINE
8
Default
10
76.560600
20
259.685000
11
76.560600
21
259.685000
0
LINE
8
Default
10
62.837400
20
245.581000
11
76.560700
21
259.685200
0
LINE
8
Default
10
76.560600
20
259.685000
11
76.833348
21
261.304780
0
LINE
8
Default
10
76.833400
20
261.305000
11
76.833400
21
261.305000
0
LINE
8
Default
10
76.560600
20
259.685000
11
76.833348
21
261.304780
0
LINE
8
Default
10
76.833400
20
261.305000
11
58.546700
21
294.138000
0
LINE
8
Default
10
58.546700
20
294.138000
11
58.546700
21
294.138000
0
LINE
8
Default
10
76.833400
20
261.305000
11
58.546700
21
294.138000
0
LINE
8
Default
10
58.546700
20
294.138000
11
39.942800
21
261.301000
0
LINE
8
Default
10
39.942800
20
261.301000
11
39.942800
21
261.301000
0
LINE
8
Default
10
58.546700
20
294.138000
11
39.942800
21
261.301000
0
LINE
8
Default
10
39.942800
20
261.301000
11
39.942800
21
259.684930
0
LINE
8
Default
10
39.942800
20
259.685000
11
39.942800
21
259.685000
0
LINE
8
Default
10
39.942800
20
261.301000
11
39.942800
21
259.684930
0
LINE
8
Default
10
39.942800
20
259.685000
11
54.355100
21
245.580800
0
LINE
8
Default
10
54.355100
20
245.581000
11
54.355100
21
245.581000
0
LINE
8
Default
10
39.942800
20
259.685000
11
54.355100
21
245.580800
0
LINE
8
Default
10
54.355100
20
245.581000
11
52.234540
21
243.463850
0
LINE
8
Default
10
52.234600
20
243.464000
11
52.234600
21
243.464000
0
LINE
8
Default
10
54.355100
20
245.581000
11
52.234540
21
243.463850
0
LINE
8
Default
10
52.234600
20
243.464000
11
37.683300
21
257.588300
0
LINE
8
Default
10
37.683300
20
257.588000
11
37.683300
21
257.588000
0
LINE
8
Default
10
52.234600
20
243.464000
11
37.683300
21
257.588300
0
LINE
8
Default
10
37.683300
20
257.588000
11
36.064910
21
257.852776
0
LINE
8
Default
10
36.064900
20
257.853000
11
36.064900
21
257.853000
0
LINE
8
Default
10
37.683300
20
257.588000
11
36.064910
21
257.852776
0
LINE
8
Default
10
36.064900
20
257.853000
11
3.423220
21
239.169000
0
LINE
8
Default
10
36.064900
20
257.853000
11
3.423220
21
239.169000
0
LINE
8
Default
10
3.423220
20
239.169000
11
36.487220
21
220.602800
0
LINE
8
Default
10
19.955200
20
229.886000
11
19.955200
21
229.886000
0
LINE
8
Default
10
36.487200
20
220.602000
11
38.097480
21
220.880487
0
LINE
8
Default
10
37.292400
20
220.742000
11
37.292400
21
220.742000
0
LINE
8
Default
10
38.097500
20
220.881000
11
52.234600
21
234.995300
0
LINE
8
Default
10
45.166000
20
227.938000
11
45.166000
21
227.938000
0
LINE
8
Default
10
52.234600
20
234.995000
11
54.355160
21
232.877850
0
LINE
8
Default
10
53.294900
20
233.937000
11
53.294900
21
233.937000
0
LINE
8
Default
10
54.355100
20
232.878000
11
40.268600
21
218.814100
0
LINE
8
Default
10
47.311900
20
225.846000
11
47.311900
21
225.846000
0
LINE
8
Default
10
40.268600
20
218.814000
11
39.927060
21
217.150250
0
LINE
8
Default
10
40.097800
20
217.982000
11
40.097800
21
217.982000
0
LINE
8
Default
10
39.927100
20
217.150000
11
58.403600
21
184.276300
0
LINE
8
Default
10
49.165300
20
200.714000
11
49.165300
21
200.714000
0
LINE
8
Default
10
58.403500
20
184.277000
11
77.226800
21
217.150000
0
LINE
8
Default
10
67.815100
20
200.714000
11
67.815100
21
200.714000
0
LINE
8
Default
10
77.226800
20
217.150000
11
76.974467
21
218.763300
0
LINE
8
Default
10
77.100600
20
217.957000
11
77.100600
21
217.957000
0
LINE
8
Default
10
76.974400
20
218.764000
11
62.837400
21
232.878000
0
LINE
8
Default
10
69.905900
20
225.821000
11
69.905900
21
225.821000
0
LINE
8
Default
10
62.837400
20
232.878000
11
64.957960
21
234.995150
0
LINE
8
Default
10
63.897700
20
233.937000
11
63.897700
21
233.937000
0
LINE
8
Default
10
64.957900
20
234.995000
11
78.681200
21
220.890800
0
LINE
8
Default
10
71.819600
20
227.943000
11
71.819600
21
227.943000
0
LINE
8
Default
10
78.681200
20
220.891000
11
80.636510
21
220.891000
0
LINE
8
Default
10
79.658900
20
220.891000
11
79.658900
21
220.891000
0
LINE
8
Default
10
80.636500
20
220.891000
11
113.383800
21
239.168600
0
LINE
8
Default
10
97.010200
20
230.030000
11
97.010200
21
230.030000
0
LINE
8
Default
10
113.384000
20
239.169000
11
80.251100
21
257.375000
0
LINE
8
Default
10
96.817400
20
248.272000
11
96.817400
21
248.272000
0
LINE
8
Default
10
80.251100
20
257.375000
11
64.958000
21
243.464000
0
LINE
8
Default
10
72.604500
20
250.419000
11
72.604500
21
250.419000
0
LINE
8
Default
10
64.957900
20
243.464000
11
62.837340
21
245.581150
0
LINE
8
Default
10
63.897700
20
244.522000
11
63.897700
21
244.522000
0
LINE
8
Default
10
62.837400
20
245.581000
11
76.560700
21
259.685200
0
LINE
8
Default
10
69.699000
20
252.633000
11
69.699000
21
252.633000
0
LINE
8
Default
10
76.560600
20
259.685000
11
76.833348
21
261.304780
0
LINE
8
Default
10
76.697000
20
260.495000
11
76.697000
21
260.495000
0
LINE
8
Default
10
76.833400
20
261.305000
11
58.546700
21
294.138000
0
LINE
8
Default
10
67.690000
20
277.722000
11
67.690000
21
277.722000
0
LINE
8
Default
10
58.546700
20
294.138000
11
39.942800
21
261.301000
0
LINE
8
Default
10
49.244800
20
277.720000
11
49.244800
21
277.720000
0
LINE
8
Default
10
39.942800
20
261.301000
11
39.942800
21
259.684930
0
LINE
8
Default
10
39.942800
20
260.493000
11
39.942800
21
260.493000
0
LINE
8
Default
10
39.942800
20
259.685000
11
54.355100
21
245.580800
0
LINE
8
Default
10
47.149000
20
252.633000
11
47.149000
21
252.633000
0
LINE
8
Default
10
54.355100
20
245.581000
11
52.234540
21
243.463850
0
LINE
8
Default
10
53.294900
20
244.522000
11
53.294900
21
244.522000
0
LINE
8
Default
10
52.234600
20
243.464000
11
37.683300
21
257.588300
0
LINE
8
Default
10
44.958900
20
250.526000
11
44.958900
21
250.526000
0
LINE
8
Default
10
37.683300
20
257.588000
11
36.064910
21
257.852776
0
LINE
8
Default
10
36.874100
20
257.721000
11
36.874100
21
257.721000
0
LINE
8
Default
10
36.064900
20
257.853000
11
3.423220
21
239.169000
0
LINE
8
Default
10
19.744000
20
248.511000
11
19.744000
21
248.511000
 0 
ENDSEC
 0 
EOF